<svg xmlns="http://www.w3.org/2000/svg" version="1.0" width="700.000000" height="400.000000" preserveAspectRatio="xMidYMid meet" style=""><rect id="backgroundrect" width="100%" height="100%" x="0" y="0" fill="none" stroke="none"/>
<metadata>
Created by potrace 1.15, written by Peter Selinger 2001-2017
</metadata>

<g class="currentLayer" style=""><title>Layer 1</title><g transform="translate(0,400) scale(0.10000000149011612,-0.10000000149011612) " fill="#ffffff" stroke="none" id="svg_1" class="selected" opacity="1" fill-opacity="1">
<path d="M1392 3582 c-34 -10 -90 -59 -108 -94 -12 -22 -15 -51 -12 -103 3 -60 8 -78 31 -108 38 -51 81 -71 147 -71 106 0 171 62 178 170 5 79 -1 104 -35 145 -47 56 -130 81 -201 61z" id="svg_2" opacity="1" fill="#ffffff" fill-opacity="1"/>
<path d="M2250 3534 c-44 -19 -1393 -1363 -1421 -1416 -35 -68 -17 -170 38 -220 26 -24 87 -48 120 -48 82 0 71 -10 795 716 381 382 699 707 706 720 18 34 17 125 -1 161 -46 88 -148 125 -237 87z" id="svg_3" opacity="1" fill="#ffffff" fill-opacity="1"/>
<path d="M2800 3189 c-46 -14 -1100 -1062 -1130 -1125 -62 -127 24 -264 165 -264 26 0 62 8 83 19 56 29 1098 1077 1117 1123 61 149 -76 294 -235 247z" id="svg_4" opacity="1" fill="#ffffff" fill-opacity="1"/>
<path d="M915 3101 c-16 -10 -159 -149 -317 -307 -280 -283 -287 -290 -293 -337 -13 -87 31 -174 102 -203 43 -18 117 -18 157 1 17 8 161 145 318 303 296 296 308 312 308 390 0 55 -48 130 -102 158 -40 21 -137 18 -173 -5z" id="svg_5" opacity="1" fill="#ffffff" fill-opacity="1"/>
<path d="M3185 2643 c-11 -2 -31 -6 -45 -9 -28 -6 -1871 -1840 -1896 -1886 -18 -35 -18 -131 0 -167 25 -48 81 -89 132 -97 103 -15 43 -68 1061 949 1017 1018 964 958 949 1061 -8 48 -48 105 -90 128 -26 14 -84 25 -111 21z" id="svg_6" opacity="1" fill="#ffffff" fill-opacity="1"/>
<path d="M4758 2279 c-16 -9 -18 -34 -18 -284 0 -261 1 -275 19 -285 27 -14 47 -13 65 6 14 13 16 53 16 284 0 256 -1 270 -19 280 -24 12 -41 12 -63 -1z" id="svg_7" opacity="1" fill="#ffffff" fill-opacity="1"/>
<path d="M4947 2276 c-11 -11 -15 -70 -20 -278 -6 -258 -6 -263 14 -280 47 -40 89 -4 89 75 0 42 4 55 21 65 23 15 31 7 99 -90 43 -61 67 -75 99 -59 47 26 37 54 -65 194 l-28 38 52 52 c57 57 68 98 33 117 -35 18 -56 11 -106 -41 -28 -28 -61 -59 -75 -69 l-25 -18 0 140 c0 127 -2 141 -19 154 -25 18 -51 18 -69 0z" id="svg_8" opacity="1" fill="#ffffff" fill-opacity="1"/>
<path d="M5991 2266 c-7 -8 -15 -53 -18 -100 -5 -78 -7 -84 -24 -76 -43 24 -147 3 -192 -38 -65 -59 -83 -197 -35 -270 46 -68 154 -102 234 -72 19 8 30 8 38 0 14 -14 52 -12 65 4 7 9 11 60 10 147 -1 74 2 191 6 261 8 141 4 158 -45 158 -15 0 -33 -6 -39 -14z m-49 -283 c14 -12 18 -31 18 -83 0 -61 -2 -69 -25 -84 -53 -35 -127 -6 -140 54 -8 38 11 96 38 115 28 20 86 19 109 -2z" id="svg_9" opacity="1" fill="#ffffff" fill-opacity="1"/>
<path d="M6619 2206 c-19 -9 -25 -21 -27 -59 l-3 -47 -38 0 c-44 0 -61 -14 -61 -51 0 -34 16 -47 65 -51 l40 -3 3 -136 c2 -120 5 -138 22 -154 26 -24 68 -13 81 23 7 16 9 75 7 150 l-5 122 42 0 c43 0 75 22 75 52 0 27 -35 48 -78 48 -39 0 -42 2 -42 28 0 68 -34 102 -81 78z" id="svg_10" opacity="1" fill="#ffffff" fill-opacity="1"/>
<path d="M3975 2090 c-17 -19 -18 -41 -16 -278 2 -277 7 -302 55 -302 42 0 56 29 56 113 l0 76 54 0 c80 0 140 38 165 104 14 36 14 131 1 179 -23 80 -101 123 -182 99 -37 -11 -41 -11 -55 8 -18 27 -55 27 -78 1z m211 -122 c4 -6 8 -37 8 -69 1 -75 -20 -101 -78 -97 l-41 3 -3 70 c-3 62 0 72 19 87 24 20 84 24 95 6z" id="svg_11" opacity="1" fill="#ffffff" fill-opacity="1"/>
<path d="M4455 2078 c-122 -43 -170 -232 -82 -326 75 -81 210 -69 267 22 44 72 43 186 -3 253 -38 57 -109 76 -182 51z m99 -109 c5 -4 11 -32 14 -61 3 -43 0 -58 -18 -80 -21 -28 -61 -37 -87 -20 -32 21 -36 104 -6 148 22 31 71 38 97 13z" id="svg_12" opacity="1" fill="#ffffff" fill-opacity="1"/>
<path d="M5413 2065 c-85 -42 -128 -130 -113 -228 13 -88 69 -137 155 -137 28 1 64 7 80 14 25 11 34 10 52 -1 27 -18 62 -14 77 9 8 13 6 26 -8 54 -23 50 -32 160 -16 208 10 33 10 40 -6 57 -48 53 -142 63 -221 24z m117 -144 c0 -44 2 -86 5 -93 7 -16 -33 -38 -69 -38 -80 0 -83 142 -4 190 61 37 68 30 68 -59z" id="svg_13" opacity="1" fill="#ffffff" fill-opacity="1"/>
<path d="M6243 2079 c-36 -11 -86 -57 -110 -103 -10 -18 -17 -55 -17 -91 0 -111 65 -186 161 -186 58 -1 94 12 123 43 62 64 79 188 37 263 -42 74 -107 99 -194 74z m88 -108 c20 -16 24 -29 24 -74 0 -64 -22 -97 -66 -97 -55 0 -81 57 -58 124 8 24 24 46 39 53 32 16 34 16 61 -6z" id="svg_14" opacity="1" fill="#ffffff" fill-opacity="1"/>
<path d="M3145 1738 c-32 -9 -70 -40 -196 -167 -144 -143 -158 -160 -167 -204 -18 -89 19 -176 91 -211 48 -22 129 -21 175 3 45 24 294 274 316 318 18 37 21 118 5 160 -31 82 -129 126 -224 101z" id="svg_15" opacity="1" fill="#ffffff" fill-opacity="1"/>
<path d="M461 1730 c-130 -31 -182 -196 -94 -301 36 -42 77 -60 138 -60 63 0 101 17 143 66 38 43 46 69 40 140 -9 112 -113 183 -227 155z" id="svg_16" opacity="1" fill="#ffffff" fill-opacity="1"/>
<path d="M1249 1651 c-24 -16 -159 -145 -301 -287 -225 -227 -258 -264 -268 -304 -41 -154 103 -285 248 -225 45 19 564 533 587 581 23 48 19 129 -7 176 -50 88 -171 116 -259 59z" id="svg_17" opacity="1" fill="#ffffff" fill-opacity="1"/>
<path d="M2212 839 c-107 -53 -131 -193 -49 -286 40 -45 82 -63 149 -63 158 1 238 188 130 304 -60 64 -154 82 -230 45z" id="svg_18" opacity="1" fill="#ffffff" fill-opacity="1"/>
</g></g></svg>